<?xml version="1.0" encoding="UTF-8"?>
<svg id="Camada_2" data-name="Camada 2" xmlns="http://www.w3.org/2000/svg" viewBox="0 0 141.12 128.12">
  <defs>
    <style>
      .cls-1 {
        fill: #fff;
        stroke-width: 0px;
      }
    </style>
  </defs>
  <g id="Camada_1-2" data-name="Camada 1">
    <g id="Layer_2" data-name="Layer 2">
      <g id="Layer_1-2" data-name="Layer 1-2">
        <path class="cls-1" d="m129.74,57.46c.48-.49,1-.94,1.55-1.36,2.67-1.76,6.24-1.26,8.32,1.18.83,1.18,1.32,2.57,1.42,4.01.7,5.3-3.01,9.6-7.44,11.63-.65.3-1.33.51-2.01.75-.38.13-.59.29-.52.77.3,2.65.27,5.32-.09,7.96-.81,6.94-2.61,13.74-5.34,20.17-2.04,5.1-4.8,9.88-8.21,14.19-3.03,3.96-6.97,7.13-11.48,9.24-4.12,1.84-8.68,2.44-13.14,1.72-3.3-.59-6.37-2.09-8.87-4.32-1.04-.87-2.01-1.84-2.97-2.73-1.25.98-2.45,2.06-3.78,2.94-4.67,3.1-9.76,4.9-15.45,4.41-3.45-.34-6.77-1.52-9.67-3.42-5.53-3.49-8.54-8.71-10-14.94-1.07-5.17-1.34-10.48-.79-15.73.49-6.09,1.45-12.13,2.88-18.06,1.63-6.91,3.47-13.77,5.26-20.64,1.19-4.56,2.47-9.09,3.7-13.64.04-.21.08-.43.1-.65-1.01-.08-1.98-.19-2.94-.23-3.5-.17-7-.05-10.48.37-5.45.7-10.72,2.01-15.49,4.89-3.21,2.08-5.92,4.84-7.93,8.1-2.81,4.2-3.63,8.89-3.41,13.84.36,8.38,6.13,14.15,13.49,16.07.69.18,1.4.25,2.22.39-.13.16-.26.32-.41.47-3.87,3.22-7.74,6.44-11.62,9.65-1.02.84-2.08,1.62-3.08,2.48-.49.44-1.18.57-1.8.35-5.55-1.62-8.99-5.32-10.69-10.77-1.46-4.67-1.19-9.36-.32-14.08,1.3-7.21,4.08-14.08,8.14-20.18,3.28-4.83,7.18-9.2,11.59-13.02,5.44-4.75,11.47-8.78,17.95-11.97,5.32-2.71,11.01-4.63,16.89-5.68,4.76-.82,9.57-1.4,14.36-2.07,5.2-.72,10.4-1.4,15.59-2.13,5.51-.75,10.96-1.83,16.34-3.25,5.36-1.31,10.48-3.46,15.15-6.38,2.86-1.86,5.39-4.18,7.51-6.85.21-.26.44-.5.81-.93,0,1.02,0,1.84,0,2.66.12,4.82-.32,9.64-1.31,14.36-1.5,6.63-4.39,12.49-9.55,17.06-3.4,2.94-7.41,5.1-11.73,6.33-3.19.98-6.48,1.59-9.8,1.8-3.06.18-6.13.15-9.2.14-1.51,0-3.01-.18-4.52-.2-.33.04-.62.24-.78.53-2.2,4.71-4.37,9.43-6.52,14.16-3.09,6.78-5.93,13.66-8.35,20.71-1.68,4.77-2.99,9.65-3.93,14.61-1.02,4.7-1.21,9.54-.55,14.3.48,3.75,2.33,7.19,5.19,9.66,3.46,3.13,8.81,2.87,11.94-.59.09-.1.18-.2.27-.31.33-.32.36-.85.05-1.19-2.01-3.43-3.51-7.14-4.45-11.01-1.4-5.84-1.71-11.7.07-17.53,1.12-4.18,3.62-7.87,7.09-10.45,2.82-2.15,6.34-3.17,9.87-2.85,5.74.61,9.87,3.39,11.64,9.48,1.26,4.66,1,9.6-.76,14.09-2.21,6.35-5.98,11.75-10.34,16.77-.35.4-.68.81-1.06,1.17-.32.3-.3.51-.02.83,1.13,1.19,2.62,1.97,4.24,2.22,3.32.72,6.26-.33,9.06-1.92,4.05-2.31,6.78-5.85,8.95-9.89,1.68-3.12,2.91-6.47,3.63-9.94,1.6-7.05,1.26-14.4-.98-21.27-.79-2.25-1.99-4.32-3.55-6.12-.84-.95-1.6-1.97-2.27-3.05-.9-1.37-.85-3.16.12-4.48,2.54-3.71,5.92-5.99,10.58-5.78,2.26.15,4.36,1.2,5.83,2.93,1.34,1.46,2.5,3.09,3.79,4.6.83,1.09,2.15,1.7,3.52,1.63,1.09,0,1.97-.88,1.97-1.97,0-.22-.04-.45-.11-.66-.38-1.23-1.25-2.25-2.4-2.83-.24-.14-.49-.28-.94-.53Zm-46.28,47.07c.3-.36.47-.55.63-.75,1.71-2.19,3.13-4.6,4.21-7.17.92-2.06,1.42-4.29,1.49-6.54.03-1.91-.74-3.32-2.08-3.86-1.51-.55-3.2-.14-4.28,1.05-.77.92-1.27,2.05-1.43,3.25-.63,4.01-.38,8.11.74,12.02.16.63.44,1.23.73,2.01h0Z"/>
      </g>
    </g>
  </g>
</svg>